<svg height="140" viewBox="0 0 740 1009" fill="#fafa00" xmlns="http://www.w3.org/2000/svg" style='margin: 0 auto'>
  <path d="M204.533 907.363C209.327 904.813 213.713 902.977 217.691 901.855C221.771 900.733 226.106 900.172 230.696 900.172C233.96 900.172 237.02 900.631 239.876 901.549C242.834 902.467 245.384 903.946 247.526 905.986C249.77 908.026 251.504 910.729 252.728 914.095C254.054 917.359 254.717 921.388 254.717 926.182V973H249.209L247.526 963.514H247.22C244.262 967.084 240.794 969.787 236.816 971.623C232.838 973.357 228.401 974.224 223.505 974.224C220.139 974.224 217.028 973.765 214.172 972.847C211.316 971.827 208.817 970.399 206.675 968.563C204.635 966.727 203.003 964.534 201.779 961.984C200.657 959.332 200.096 956.425 200.096 953.263C200.096 949.489 200.861 946.174 202.391 943.318C203.921 940.462 206.063 938.116 208.817 936.28C211.571 934.342 214.835 932.914 218.609 931.996C222.485 931.078 226.769 930.619 231.461 930.619H246.761V925.876C246.761 918.94 245.231 913.993 242.171 911.035C239.111 908.077 235.133 906.598 230.237 906.598C227.279 906.598 223.862 907.057 219.986 907.975C216.11 908.893 211.979 910.576 207.593 913.024L204.533 907.363ZM246.761 936.892L234.062 937.045C229.472 937.147 225.545 937.657 222.281 938.575C219.017 939.391 216.314 940.513 214.172 941.941C212.132 943.267 210.653 944.899 209.735 946.837C208.817 948.673 208.358 950.662 208.358 952.804C208.358 955.456 208.817 957.751 209.735 959.689C210.653 961.525 211.877 963.055 213.407 964.279C214.937 965.503 216.722 966.421 218.762 967.033C220.904 967.543 223.148 967.798 225.494 967.798C227.33 967.798 229.217 967.594 231.155 967.186C233.093 966.676 234.98 965.962 236.816 965.044C238.754 964.024 240.59 962.8 242.324 961.372C244.058 959.842 245.537 958.006 246.761 955.864V936.892ZM284.397 973H276.441V901.09H282.102L283.326 911.035C286.692 907.669 290.313 905.017 294.189 903.079C298.065 901.039 302.706 900.019 308.112 900.019C313.212 900.019 317.394 901.09 320.658 903.232C323.922 905.272 326.37 908.128 328.002 911.8C331.572 908.026 335.499 905.119 339.783 903.079C344.067 901.039 348.81 900.019 354.012 900.019C361.356 900.019 366.864 902.11 370.536 906.292C374.31 910.372 376.197 916.084 376.197 923.428V973H368.241V925.876C368.241 919.756 366.915 915.013 364.263 911.647C361.713 908.281 357.072 906.598 350.34 906.598C346.872 906.598 343.251 907.567 339.477 909.505C335.805 911.443 332.694 914.044 330.144 917.308C330.246 918.226 330.297 919.246 330.297 920.368C330.297 921.49 330.297 922.51 330.297 923.428V973H322.341V925.876C322.341 919.756 321.117 915.013 318.669 911.647C316.221 908.281 311.682 906.598 305.052 906.598C301.278 906.598 297.555 907.618 293.883 909.658C290.313 911.596 287.151 914.299 284.397 917.767V973ZM446.379 967.645C443.829 969.991 440.922 971.674 437.658 972.694C434.394 973.714 430.722 974.224 426.642 974.224C421.542 974.224 416.952 973.357 412.872 971.623C408.894 969.889 405.528 967.39 402.774 964.126C400.02 960.862 397.878 956.986 396.348 952.498C394.92 947.908 394.206 942.757 394.206 937.045C394.206 931.741 394.92 926.845 396.348 922.357C397.776 917.869 399.867 913.993 402.621 910.729C405.375 907.363 408.741 904.762 412.719 902.926C416.697 901.09 421.287 900.172 426.489 900.172C430.773 900.172 434.7 900.937 438.27 902.467C441.84 903.895 444.798 905.935 447.144 908.587L448.215 901.09H454.335V1008.19H446.379V967.645ZM446.379 915.319C444.543 913.075 442.095 911.086 439.035 909.352C436.077 907.516 432.303 906.598 427.713 906.598C424.245 906.598 420.981 907.21 417.921 908.434C414.861 909.556 412.158 911.341 409.812 913.789C407.568 916.237 405.783 919.348 404.457 923.122C403.131 926.896 402.468 931.384 402.468 936.586C402.468 947.194 404.814 955.048 409.506 960.148C414.3 965.248 420.624 967.798 428.478 967.798C432.558 967.798 436.128 967.033 439.188 965.503C442.248 963.871 444.645 961.984 446.379 959.842V915.319ZM503.853 974.224C500.487 974.224 497.325 973.816 494.367 973C491.409 972.082 488.859 970.858 486.717 969.328V1008.19H478.761V900.172H485.34L486.564 909.352C488.91 907.006 491.868 904.915 495.438 903.079C499.008 901.141 503.343 900.172 508.443 900.172C512.829 900.172 516.858 900.937 520.53 902.467C524.304 903.997 527.568 906.241 530.322 909.199C533.076 912.157 535.218 915.829 536.748 920.215C538.278 924.601 539.043 929.599 539.043 935.209C539.043 941.941 538.023 947.755 535.983 952.651C534.045 957.547 531.393 961.627 528.027 964.891C524.763 968.053 520.989 970.399 516.705 971.929C512.523 973.459 508.239 974.224 503.853 974.224ZM506.76 906.598C504.414 906.598 502.17 906.955 500.028 907.669C497.988 908.281 496.101 909.097 494.367 910.117C492.633 911.137 491.103 912.259 489.777 913.483C488.451 914.707 487.431 915.88 486.717 917.002V962.749C488.961 964.483 491.46 965.758 494.214 966.574C497.07 967.39 499.926 967.798 502.782 967.798C506.352 967.798 509.82 967.237 513.186 966.115C516.552 964.993 519.51 963.157 522.06 960.607C524.712 957.955 526.803 954.589 528.333 950.509C529.965 946.327 530.781 941.227 530.781 935.209C530.781 926.131 528.792 919.093 524.814 914.095C520.938 909.097 514.92 906.598 506.76 906.598Z" fill="#777"/>
<path d="M0 370C0 70 173 0 370 0C567 0 740 70 740 370C740 670 567 740 370 740C173 740 0 670 0 370Z" fill="#FAFA00"/>
<path d="M446.379 493.768V303.387C446.379 288.803 443.417 276.157 437.492 265.447C431.796 254.51 423.137 246.079 411.516 240.154C399.895 234.23 385.539 231.268 368.449 231.268C352.499 231.268 338.485 234.002 326.408 239.471C314.559 244.939 305.217 252.117 298.381 261.004C291.773 269.891 288.469 279.461 288.469 289.715H225.236C225.236 276.499 228.654 263.396 235.49 250.408C242.326 237.42 252.124 225.685 264.885 215.203C277.873 204.493 293.368 196.062 311.369 189.91C329.598 183.53 349.878 180.34 372.209 180.34C399.097 180.34 422.795 184.897 443.303 194.012C464.038 203.126 480.217 216.912 491.838 235.369C503.687 253.598 509.611 276.499 509.611 304.07V476.336C509.611 488.641 510.637 501.743 512.688 515.643C514.966 529.542 518.27 541.505 522.6 551.531L525 557H456.633C453.443 549.708 450.936 540.024 449.113 527.947C447.29 515.643 446.379 504.249 446.379 493.768ZM457.316 332.781L458 377.215H394.084C376.083 377.215 360.018 378.696 345.891 381.658C331.763 384.393 319.914 388.608 310.344 394.305C300.773 400.001 293.482 407.179 288.469 415.838C283.456 424.269 280.949 434.181 280.949 445.574C280.949 457.195 283.57 467.791 288.811 477.361C294.051 486.932 301.913 494.565 312.395 500.262C323.104 505.73 336.206 508.465 351.701 508.465C371.07 508.465 388.16 504.363 402.971 496.16C417.782 487.957 429.517 477.931 438.176 466.082C447.062 454.233 451.848 442.726 452.531 431.561L479.533 461.98C477.938 471.551 473.609 482.146 466.545 493.768C459.481 505.389 450.025 516.554 438.176 527.264C426.555 537.745 412.655 546.518 396.477 553.582C380.526 560.418 362.525 563.836 342.473 563.836C317.408 563.836 295.419 558.937 276.506 549.139C257.821 539.34 243.238 526.238 232.756 509.832C222.502 493.198 217.375 474.627 217.375 454.119C217.375 434.295 221.249 416.863 228.996 401.824C236.743 386.557 247.909 373.911 262.492 363.885C277.076 353.631 294.621 345.883 315.129 340.643C335.637 335.402 358.537 332.781 383.83 332.781H457.316Z" fill="white"/>
</svg>
