<svg height="140" viewBox="0 0 740 1009" fill="#fafa00" xmlns="http://www.w3.org/2000/svg" style='margin: 0 auto'>
  <path d="M204.533 907.363C209.327 904.813 213.713 902.977 217.691 901.855C221.771 900.733 226.106 900.172 230.696 900.172C233.96 900.172 237.02 900.631 239.876 901.549C242.834 902.467 245.384 903.946 247.526 905.986C249.77 908.026 251.504 910.729 252.728 914.095C254.054 917.359 254.717 921.388 254.717 926.182V973H249.209L247.526 963.514H247.22C244.262 967.084 240.794 969.787 236.816 971.623C232.838 973.357 228.401 974.224 223.505 974.224C220.139 974.224 217.028 973.765 214.172 972.847C211.316 971.827 208.817 970.399 206.675 968.563C204.635 966.727 203.003 964.534 201.779 961.984C200.657 959.332 200.096 956.425 200.096 953.263C200.096 949.489 200.861 946.174 202.391 943.318C203.921 940.462 206.063 938.116 208.817 936.28C211.571 934.342 214.835 932.914 218.609 931.996C222.485 931.078 226.769 930.619 231.461 930.619H246.761V925.876C246.761 918.94 245.231 913.993 242.171 911.035C239.111 908.077 235.133 906.598 230.237 906.598C227.279 906.598 223.862 907.057 219.986 907.975C216.11 908.893 211.979 910.576 207.593 913.024L204.533 907.363ZM246.761 936.892L234.062 937.045C229.472 937.147 225.545 937.657 222.281 938.575C219.017 939.391 216.314 940.513 214.172 941.941C212.132 943.267 210.653 944.899 209.735 946.837C208.817 948.673 208.358 950.662 208.358 952.804C208.358 955.456 208.817 957.751 209.735 959.689C210.653 961.525 211.877 963.055 213.407 964.279C214.937 965.503 216.722 966.421 218.762 967.033C220.904 967.543 223.148 967.798 225.494 967.798C227.33 967.798 229.217 967.594 231.155 967.186C233.093 966.676 234.98 965.962 236.816 965.044C238.754 964.024 240.59 962.8 242.324 961.372C244.058 959.842 245.537 958.006 246.761 955.864V936.892ZM284.397 973H276.441V901.09H282.102L283.326 911.035C286.692 907.669 290.313 905.017 294.189 903.079C298.065 901.039 302.706 900.019 308.112 900.019C313.212 900.019 317.394 901.09 320.658 903.232C323.922 905.272 326.37 908.128 328.002 911.8C331.572 908.026 335.499 905.119 339.783 903.079C344.067 901.039 348.81 900.019 354.012 900.019C361.356 900.019 366.864 902.11 370.536 906.292C374.31 910.372 376.197 916.084 376.197 923.428V973H368.241V925.876C368.241 919.756 366.915 915.013 364.263 911.647C361.713 908.281 357.072 906.598 350.34 906.598C346.872 906.598 343.251 907.567 339.477 909.505C335.805 911.443 332.694 914.044 330.144 917.308C330.246 918.226 330.297 919.246 330.297 920.368C330.297 921.49 330.297 922.51 330.297 923.428V973H322.341V925.876C322.341 919.756 321.117 915.013 318.669 911.647C316.221 908.281 311.682 906.598 305.052 906.598C301.278 906.598 297.555 907.618 293.883 909.658C290.313 911.596 287.151 914.299 284.397 917.767V973ZM446.379 967.645C443.829 969.991 440.922 971.674 437.658 972.694C434.394 973.714 430.722 974.224 426.642 974.224C421.542 974.224 416.952 973.357 412.872 971.623C408.894 969.889 405.528 967.39 402.774 964.126C400.02 960.862 397.878 956.986 396.348 952.498C394.92 947.908 394.206 942.757 394.206 937.045C394.206 931.741 394.92 926.845 396.348 922.357C397.776 917.869 399.867 913.993 402.621 910.729C405.375 907.363 408.741 904.762 412.719 902.926C416.697 901.09 421.287 900.172 426.489 900.172C430.773 900.172 434.7 900.937 438.27 902.467C441.84 903.895 444.798 905.935 447.144 908.587L448.215 901.09H454.335V1008.19H446.379V967.645ZM446.379 915.319C444.543 913.075 442.095 911.086 439.035 909.352C436.077 907.516 432.303 906.598 427.713 906.598C424.245 906.598 420.981 907.21 417.921 908.434C414.861 909.556 412.158 911.341 409.812 913.789C407.568 916.237 405.783 919.348 404.457 923.122C403.131 926.896 402.468 931.384 402.468 936.586C402.468 947.194 404.814 955.048 409.506 960.148C414.3 965.248 420.624 967.798 428.478 967.798C432.558 967.798 436.128 967.033 439.188 965.503C442.248 963.871 444.645 961.984 446.379 959.842V915.319ZM503.853 974.224C500.487 974.224 497.325 973.816 494.367 973C491.409 972.082 488.859 970.858 486.717 969.328V1008.19H478.761V900.172H485.34L486.564 909.352C488.91 907.006 491.868 904.915 495.438 903.079C499.008 901.141 503.343 900.172 508.443 900.172C512.829 900.172 516.858 900.937 520.53 902.467C524.304 903.997 527.568 906.241 530.322 909.199C533.076 912.157 535.218 915.829 536.748 920.215C538.278 924.601 539.043 929.599 539.043 935.209C539.043 941.941 538.023 947.755 535.983 952.651C534.045 957.547 531.393 961.627 528.027 964.891C524.763 968.053 520.989 970.399 516.705 971.929C512.523 973.459 508.239 974.224 503.853 974.224ZM506.76 906.598C504.414 906.598 502.17 906.955 500.028 907.669C497.988 908.281 496.101 909.097 494.367 910.117C492.633 911.137 491.103 912.259 489.777 913.483C488.451 914.707 487.431 915.88 486.717 917.002V962.749C488.961 964.483 491.46 965.758 494.214 966.574C497.07 967.39 499.926 967.798 502.782 967.798C506.352 967.798 509.82 967.237 513.186 966.115C516.552 964.993 519.51 963.157 522.06 960.607C524.712 957.955 526.803 954.589 528.333 950.509C529.965 946.327 530.781 941.227 530.781 935.209C530.781 926.131 528.792 919.093 524.814 914.095C520.938 909.097 514.92 906.598 506.76 906.598Z" fill="#777"/>
<path d="M0 370C0 70 173 0 370 0C567 0 740 70 740 370C740 670 567 740 370 740C173 740 0 670 0 370Z" fill="#FAFA00"/>
<path d="M413.6 545.2C412.2 538.2 411.267 532.367 410.8 527.7C410.8 522.567 410.567 516.733 410.1 510.2C394.233 526.067 377.2 537.733 359 545.2C341.267 552.667 322.833 556.4 303.7 556.4C271.967 556.4 247.467 547.767 230.2 530.5C213.4 513.233 205 492 205 466.8C205 444.4 211.067 425.5 223.2 410.1C235.333 394.233 251.2 381.4 270.8 371.6C290.4 361.333 312.1 353.633 335.9 348.5C359.7 342.9 383.267 339.867 406.6 339.4V300.9C406.6 287.367 404.967 275 401.7 263.8C398.9 252.133 393.533 243.033 385.6 236.5C377.667 229.5 366 226 350.6 226C340.333 226.467 329.833 228.8 319.1 233C308.833 236.733 300.667 242.8 294.6 251.2C298.333 255.4 300.667 260.067 301.6 265.2C302.533 269.867 303 274.067 303 277.8C303 286.2 299.733 295.067 293.2 304.4C286.667 313.267 276.167 317.467 261.7 317C249.1 316.533 239.3 312.1 232.3 303.7C225.767 295.3 222.5 285.267 222.5 273.6C222.5 255.867 228.8 240.467 241.4 227.4C254.467 213.867 271.967 203.367 293.9 195.9C315.833 187.967 340.333 184 367.4 184C407.533 184 438.333 194.5 459.8 215.5C481.267 236.5 491.767 270.1 491.3 316.3C491.3 332.633 491.3 347.567 491.3 361.1C491.3 374.167 491.067 387.467 490.6 401C490.6 414.067 490.6 428.767 490.6 445.1C490.6 452.1 490.367 460.967 489.9 471.7C489.433 481.967 488.733 492.233 487.8 502.5C496.2 501.567 504.6 501.1 513 501.1C521.867 500.633 529.1 500.167 534.7 499.7V545.2H413.6ZM405.9 380.7C391.9 381.633 378.133 383.967 364.6 387.7C351.067 390.967 338.933 395.633 328.2 401.7C317.467 407.767 308.833 415.467 302.3 424.8C296.233 433.667 293.433 443.933 293.9 455.6C294.367 470.067 299.033 480.8 307.9 487.8C316.767 494.333 327.033 497.6 338.7 497.6C352.233 497.6 364.367 494.8 375.1 489.2C386.3 483.6 396.567 476.133 405.9 466.8C405.9 462.133 405.9 457.233 405.9 452.1C405.9 446.967 405.9 441.833 405.9 436.7C405.9 430.167 405.9 422 405.9 412.2C405.9 402.4 405.9 391.9 405.9 380.7Z" fill="white"/>
</svg>
